<svg width="174" height="38" viewBox="0 0 174 38" fill="none" xmlns="http://www.w3.org/2000/svg">
<path d="M18.6746 37.3462C28.9883 37.3462 37.3492 28.986 37.3492 18.6731C37.3492 8.36023 28.9883 0 18.6746 0C8.36089 0 0 8.36023 0 18.6731C0 28.986 8.36089 37.3462 18.6746 37.3462Z" fill="url(#paint0_linear)"/>
<path opacity="0.35" d="M37.3436 18.2418C37.3436 18.2086 37.3436 18.1699 37.3436 18.1367C37.3381 17.9985 37.3326 17.8547 37.327 17.7165V17.711C37.3215 17.5672 37.3104 17.429 37.2994 17.2907C37.2994 17.2575 37.2939 17.2188 37.2939 17.1857C37.2828 17.0474 37.2717 16.9092 37.2551 16.7765C37.2551 16.7709 37.2551 16.7709 37.2551 16.7654C37.2386 16.6272 37.2275 16.4889 37.2054 16.3507C37.1999 16.3175 37.1943 16.2788 37.1943 16.2456C37.1777 16.1129 37.1556 15.9747 37.139 15.842C37.139 15.8365 37.139 15.8365 37.139 15.8309C37.1169 15.6927 37.0948 15.56 37.0727 15.4218C37.0671 15.3886 37.0616 15.3554 37.0561 15.3167C37.0339 15.184 37.0063 15.0568 36.9786 14.9241C36.9786 14.9186 36.9786 14.913 36.9731 14.9075C36.9455 14.7748 36.9178 14.6366 36.8846 14.5039C36.8791 14.4707 36.868 14.4375 36.8625 14.4043C36.8349 14.2771 36.8017 14.15 36.7685 14.0228C36.7685 14.0173 36.763 14.0117 36.763 14.0062C36.7298 13.8735 36.6911 13.7408 36.6579 13.6136C36.6469 13.5804 36.6413 13.5473 36.6303 13.5141C36.5971 13.3869 36.5584 13.2652 36.5197 13.1436C36.5197 13.1381 36.5141 13.127 36.5141 13.1215C36.4754 12.9943 36.4312 12.8616 36.3869 12.7344C36.3759 12.7012 36.3648 12.6681 36.3538 12.6404C36.3151 12.5188 36.2708 12.3971 36.2266 12.281C36.221 12.2755 36.2211 12.2644 36.2155 12.2589C36.1713 12.1317 36.1215 12.0045 36.0717 11.8829C36.0607 11.8497 36.0496 11.822 36.033 11.7889C35.9888 11.6728 35.939 11.5566 35.8893 11.4405C35.8837 11.4295 35.8837 11.4239 35.8782 11.4129C35.8284 11.2912 35.7731 11.1696 35.7178 11.0424C35.7068 11.0092 35.6902 10.9816 35.6736 10.9484C35.6238 10.8323 35.5685 10.7217 35.5132 10.6111C35.5077 10.6 35.5022 10.5945 35.5022 10.5834C35.4469 10.4618 35.386 10.3457 35.3252 10.224C35.3086 10.1964 35.292 10.1632 35.281 10.1356C35.2257 10.025 35.1648 9.91438 35.1095 9.80932C35.104 9.79826 35.0985 9.7872 35.0929 9.78167C35.0321 9.66555 34.9658 9.54943 34.8994 9.43331C34.8828 9.40566 34.8662 9.37801 34.8496 9.34484C34.7888 9.23978 34.728 9.14025 34.6671 9.03519C33.434 7.02245 37.6201 16.1904 27.4727 26.3314C15.2847 38.5074 5.36956 31.8278 6.63591 32.9447C6.79628 33.0829 6.96218 33.2157 7.12808 33.3484C7.16679 33.376 7.19997 33.4037 7.23868 33.4313C7.3161 33.4921 7.38798 33.5474 7.4654 33.6027C7.50964 33.6359 7.55388 33.6691 7.59812 33.7022C7.67001 33.752 7.73637 33.8073 7.80826 33.8571C7.8525 33.8903 7.90227 33.9234 7.94651 33.9566C8.0184 34.0064 8.08475 34.0561 8.15664 34.1004C8.20641 34.1336 8.25065 34.1667 8.30042 34.1944C8.37231 34.2441 8.4442 34.2884 8.52162 34.3381C8.56586 34.3658 8.61563 34.399 8.65987 34.4266C8.74282 34.4764 8.82024 34.5261 8.90318 34.5759C8.94189 34.598 8.9806 34.6257 9.01931 34.6478C9.14097 34.7197 9.26263 34.7916 9.38429 34.8634C9.38429 34.8634 9.38429 34.8634 9.38982 34.8634C9.51148 34.9353 9.63314 35.0017 9.76032 35.068C9.79903 35.0902 9.84327 35.1123 9.88198 35.1344C9.96493 35.1786 10.0534 35.2229 10.1364 35.2671C10.1861 35.2947 10.2359 35.3169 10.2857 35.339C10.3631 35.3777 10.4405 35.4164 10.5235 35.4551C10.5732 35.4828 10.6285 35.5049 10.6783 35.5325C10.7557 35.5712 10.8331 35.6044 10.9105 35.6431C10.9603 35.6652 11.0156 35.6929 11.0654 35.715C11.1483 35.7537 11.2258 35.7869 11.3087 35.82C11.3585 35.8422 11.4082 35.8643 11.458 35.8864C11.5465 35.9251 11.635 35.9583 11.7235 35.997C11.7677 36.0136 11.8119 36.0302 11.8562 36.0523C11.9889 36.1021 12.1216 36.1573 12.2599 36.2071C12.3926 36.2569 12.5308 36.3011 12.6635 36.3509C12.7078 36.3675 12.752 36.3785 12.7963 36.3951C12.8903 36.4283 12.9787 36.4559 13.0728 36.4836C13.1281 36.5002 13.1778 36.5168 13.2331 36.5334C13.3161 36.561 13.4046 36.5831 13.4875 36.6108C13.5428 36.6274 13.5981 36.6439 13.6589 36.6605C13.7419 36.6826 13.8304 36.7048 13.9133 36.7269C13.9686 36.7435 14.0294 36.7545 14.0847 36.7711C14.1732 36.7932 14.2617 36.8154 14.3446 36.8375C14.3999 36.8485 14.4552 36.8651 14.5105 36.8762C14.6045 36.8983 14.7041 36.9204 14.7981 36.937C14.8423 36.9481 14.8921 36.9591 14.9363 36.9647C15.2239 37.0255 15.5115 37.0752 15.8045 37.1195C15.8543 37.125 15.8986 37.1305 15.9483 37.1416C16.0479 37.1582 16.1474 37.1693 16.2469 37.1803C16.3022 37.1858 16.3631 37.1969 16.4184 37.2024C16.5068 37.2135 16.6009 37.2245 16.6893 37.2356C16.7502 37.2411 16.811 37.2467 16.8663 37.2522C16.9548 37.2633 17.0432 37.2688 17.1373 37.2743C17.1981 37.2798 17.2589 37.2854 17.3197 37.2909C17.4138 37.2964 17.5022 37.302 17.5962 37.3075C17.6515 37.313 17.7124 37.313 17.7677 37.3185C17.8672 37.3241 17.9723 37.3296 18.0718 37.3296C18.1216 37.3296 18.1714 37.3351 18.2211 37.3351C18.3704 37.3407 18.5253 37.3407 18.6746 37.3407C28.9879 37.3407 37.3492 28.9801 37.3492 18.6676C37.3492 18.5293 37.3492 18.3856 37.3436 18.2418Z" fill="white"/>
<path opacity="0.44" d="M18.6746 0C8.36125 0 0 8.3606 0 18.6731C0 23.3566 1.72534 27.6309 4.56772 30.9099C8.26171 30.1634 12.0387 29.5496 15.0469 25.5186C17.9502 21.6314 11.0986 17.3129 16.7391 10.2074C18.9068 7.47588 25.2054 2.39427 26.2174 1.58696C23.9114 0.569535 21.3566 0 18.6746 0Z" fill="#761FFF"/>
<path opacity="0.53" d="M17.9667 0.0166626C7.97969 0.387139 0 8.59844 0 18.6732C0 22.3061 1.03963 25.6957 2.83685 28.5655C3.03593 28.2503 3.22948 27.913 3.4175 27.5536C5.8009 22.9309 3.01381 18.7285 5.40274 14.1114C8.57692 7.96808 15.1686 10.6609 18.6248 4.53427C19.4709 3.02471 18.6359 1.66998 17.9667 0.0166626Z" fill="#5FE0ED"/>
<path opacity="0.19" d="M37.3491 18.6731C37.3491 18.5293 37.3491 18.3856 37.3435 18.2418C37.3435 18.2141 37.3435 18.192 37.3435 18.1644C37.338 18.0261 37.3325 17.8879 37.3269 17.7497C37.3269 17.722 37.3214 17.6944 37.3214 17.6667C37.3159 17.523 37.3048 17.3847 37.2938 17.2409C37.2938 17.2354 37.2938 17.2299 37.2938 17.2188C37.2827 17.0806 37.2716 16.9479 37.255 16.8096C37.255 16.782 37.2495 16.7599 37.2495 16.7322C37.2329 16.5995 37.2219 16.4613 37.2053 16.3286C37.1998 16.3009 37.1997 16.2733 37.1942 16.2456C37.1776 16.1074 37.1555 15.9747 37.1389 15.8365C37.1389 15.8254 37.1334 15.8143 37.1334 15.7977C37.1113 15.6706 37.0947 15.5379 37.067 15.4107C37.0615 15.3886 37.0615 15.3609 37.056 15.3388C37.0338 15.2061 37.0062 15.0789 36.9785 14.9462C36.973 14.9186 36.9675 14.8854 36.962 14.8577C36.9343 14.725 36.9067 14.5978 36.879 14.4651C36.8735 14.4486 36.868 14.432 36.868 14.4098C36.8403 14.2882 36.8127 14.1665 36.7795 14.0449C36.7739 14.0228 36.7684 13.9951 36.7629 13.973C36.7297 13.8458 36.6965 13.7187 36.6633 13.597C36.6523 13.5638 36.6468 13.5362 36.6357 13.503C36.6025 13.3758 36.5638 13.2542 36.5251 13.127C36.5196 13.1049 36.5085 13.0828 36.503 13.0606C36.4698 12.9501 36.4311 12.8339 36.3924 12.7233C36.3868 12.7012 36.3758 12.6736 36.3703 12.6515C36.3315 12.5298 36.2873 12.4082 36.2431 12.292C36.232 12.2589 36.221 12.2257 36.2099 12.198C36.1657 12.0819 36.1214 11.9603 36.0772 11.8442C36.0661 11.8165 36.0551 11.7889 36.044 11.7612C35.9998 11.6562 35.961 11.5511 35.9168 11.446C35.9057 11.4239 35.8947 11.3963 35.8836 11.3742C35.8339 11.258 35.7841 11.1474 35.7343 11.0313C35.7177 10.9981 35.7011 10.965 35.6901 10.9318C35.6403 10.8212 35.5905 10.7106 35.5352 10.6C35.5186 10.5668 35.5076 10.5392 35.491 10.506C35.4412 10.412 35.397 10.3125 35.3472 10.2185C35.3362 10.1908 35.3196 10.1687 35.3085 10.1411C35.2532 10.0305 35.1979 9.92543 35.1371 9.82036C35.1205 9.78719 35.0984 9.74848 35.0818 9.7153C35.0265 9.61024 34.9657 9.51071 34.9104 9.40565C34.8882 9.37248 34.8716 9.3393 34.8495 9.30612C34.7998 9.21765 34.7445 9.12918 34.6947 9.04071C34.6726 9.00753 34.656 8.97435 34.6339 8.94117C34.5786 8.84717 34.5177 8.75317 34.4624 8.6647C34.4403 8.62599 34.4182 8.59282 34.3905 8.55411C34.3297 8.46011 34.2634 8.36058 34.2025 8.26658C34.1804 8.22787 34.1528 8.1947 34.1306 8.15599C34.0753 8.07305 34.02 7.99563 33.9647 7.91269C33.9371 7.87398 33.9094 7.83528 33.8818 7.79104C33.8265 7.71363 33.7657 7.63069 33.7104 7.55327C33.6827 7.51457 33.6551 7.48139 33.6274 7.44268C33.5611 7.35421 33.4947 7.26574 33.4228 7.17726C33.3952 7.13856 33.362 7.09985 33.3343 7.06667C33.2735 6.99479 33.2182 6.91738 33.1574 6.84549C33.1242 6.80126 33.0855 6.75703 33.0468 6.71279C32.9915 6.64644 32.9306 6.57455 32.8753 6.5082C32.8422 6.46949 32.8145 6.43631 32.7813 6.39761C32.7094 6.31466 32.6376 6.23172 32.5657 6.15431C32.5325 6.1156 32.4993 6.07689 32.4606 6.04372C32.3998 5.97736 32.3334 5.90548 32.2726 5.83913C32.2283 5.79489 32.1896 5.75066 32.1454 5.70642C32.0901 5.6456 32.0293 5.58477 31.9684 5.52948C31.9353 5.4963 31.8965 5.45759 31.8634 5.42442C31.7859 5.347 31.7085 5.27512 31.6311 5.19771C31.5924 5.159 31.5537 5.12583 31.515 5.08712C31.4486 5.02077 31.3767 4.95994 31.3104 4.89359C31.2661 4.84935 31.2164 4.81064 31.1721 4.77193C31.1113 4.71664 31.056 4.66688 30.9952 4.61158C30.9565 4.57841 30.9177 4.54523 30.879 4.51205C30.7961 4.44017 30.7187 4.37382 30.6357 4.30746C30.5915 4.27428 30.5528 4.23558 30.5085 4.2024C30.4311 4.14158 30.3537 4.07522 30.2763 4.0144C30.232 3.98122 30.1878 3.94251 30.138 3.90933C30.0772 3.85957 30.0108 3.81533 29.95 3.76557C29.9113 3.73239 29.8671 3.70475 29.8284 3.67157C28.3242 4.51205 26.3721 5.97184 24.7021 8.41587C20.7371 14.2053 24.0219 20.5144 20.0459 26.2872C16.3408 31.6674 10.916 30.7993 6.05518 32.4028C6.15471 32.4968 6.25425 32.5853 6.35379 32.6738C6.35932 32.6793 6.36485 32.6848 6.37591 32.6904C6.47545 32.7733 6.56946 32.8618 6.669 32.9447C6.68006 32.9558 6.69112 32.9613 6.70218 32.9724C6.79619 33.0553 6.89573 33.1327 6.98974 33.2101C7.00633 33.2212 7.01738 33.2323 7.03397 33.2433C7.12798 33.3207 7.22752 33.3926 7.32153 33.47C7.33812 33.4811 7.35471 33.4977 7.3713 33.5087C7.46531 33.5806 7.56485 33.6525 7.65886 33.7244C7.67545 33.7354 7.69757 33.752 7.71416 33.7631C7.81369 33.835 7.9077 33.9013 8.00724 33.9732C8.02383 33.9843 8.04595 34.0008 8.06254 34.0119C8.16208 34.0783 8.26162 34.1501 8.36116 34.2165C8.37775 34.2276 8.39987 34.2441 8.41646 34.2552C8.516 34.3215 8.61553 34.3879 8.7206 34.4487C8.73719 34.4598 8.75931 34.4709 8.7759 34.4819C8.88097 34.5483 8.98604 34.6091 9.09111 34.6754C9.1077 34.6865 9.11876 34.692 9.13535 34.7031C9.24595 34.7694 9.35101 34.8303 9.46161 34.8966C9.47267 34.9022 9.4782 34.9077 9.48926 34.9132C10.2082 35.3224 10.9602 35.6818 11.7344 35.9915C11.751 35.997 11.7731 36.008 11.7897 36.0136C11.8893 36.0523 11.9888 36.091 12.0883 36.1297C12.127 36.1463 12.1658 36.1574 12.2045 36.1739C12.2929 36.2071 12.3869 36.2403 12.4754 36.2735C12.5252 36.29 12.575 36.3066 12.6247 36.3232C12.7132 36.3509 12.7962 36.3785 12.8846 36.4117C12.9399 36.4283 12.9952 36.4504 13.0505 36.467C13.1335 36.4946 13.2164 36.5168 13.2994 36.5444C13.3602 36.561 13.421 36.5831 13.4819 36.5997C13.5648 36.6218 13.6422 36.6439 13.7252 36.6661C13.7916 36.6826 13.8524 36.6992 13.9187 36.7158C13.9962 36.7379 14.0791 36.7545 14.1565 36.7766C14.2229 36.7932 14.2892 36.8098 14.3611 36.8264C14.4386 36.843 14.516 36.8651 14.5934 36.8817C14.6653 36.8983 14.7316 36.9149 14.8035 36.9259C14.8809 36.9425 14.9584 36.9591 15.0303 36.9757C15.1021 36.9923 15.174 37.0034 15.2515 37.0199C15.3289 37.0365 15.4008 37.0476 15.4782 37.0587C15.5556 37.0697 15.6275 37.0863 15.7049 37.0974C15.7768 37.1084 15.8542 37.1195 15.9261 37.1305C16.0035 37.1416 16.0809 37.1527 16.1584 37.1637C16.2302 37.1748 16.3021 37.1858 16.374 37.1914C16.457 37.2024 16.5344 37.208 16.6173 37.219C16.6892 37.2245 16.7611 37.2356 16.8275 37.2411C16.9104 37.2522 16.9989 37.2577 17.0819 37.2632C17.1482 37.2688 17.2201 37.2743 17.2865 37.2798C17.3749 37.2854 17.469 37.2909 17.5574 37.2964C17.6238 37.3019 17.6846 37.3075 17.751 37.3075C17.8505 37.313 17.9556 37.313 18.0551 37.3185C18.1104 37.3185 18.1602 37.3241 18.2155 37.3241C18.3703 37.3296 18.5196 37.3296 18.6745 37.3296C18.68 37.3296 18.68 37.3296 18.6855 37.3296C18.8348 37.3296 18.9786 37.3296 19.1279 37.3241C19.1501 37.3241 19.1666 37.3241 19.1888 37.3241C19.327 37.3185 19.4653 37.313 19.609 37.3075C19.6367 37.3075 19.6588 37.3075 19.6865 37.302C19.8247 37.2964 19.963 37.2854 20.0957 37.2743C20.1178 37.2743 20.1454 37.2688 20.1676 37.2688C20.3058 37.2577 20.4496 37.2467 20.5878 37.2301C20.5989 37.2301 20.6155 37.2245 20.6265 37.2245C20.7648 37.208 20.903 37.1969 21.0413 37.1748C21.0523 37.1748 21.0634 37.1693 21.08 37.1693C21.2182 37.1527 21.3565 37.1305 21.4947 37.114C21.5169 37.1084 21.539 37.1084 21.5611 37.1029C21.6938 37.0808 21.8265 37.0587 21.9593 37.0365C21.9869 37.031 22.009 37.0255 22.0367 37.0255C22.1694 37.0034 22.3021 36.9757 22.4348 36.9481C22.457 36.9425 22.4735 36.937 22.4957 36.937C22.6339 36.9094 22.7722 36.8817 22.9049 36.8485C22.9104 36.8485 22.9159 36.8485 22.9215 36.843C23.0542 36.8098 23.1869 36.7766 23.3196 36.7435C23.3362 36.7379 23.3583 36.7324 23.3749 36.7269C23.5021 36.6937 23.6293 36.6605 23.762 36.6218C23.7897 36.6163 23.8118 36.6052 23.8394 36.5997C23.9666 36.561 24.0883 36.5278 24.2155 36.4891C24.2376 36.4836 24.2652 36.4725 24.2874 36.467C24.4145 36.4283 24.5417 36.3841 24.6689 36.3453C24.6855 36.3398 24.7021 36.3343 24.7187 36.3288C24.8404 36.2845 24.9675 36.2458 25.0892 36.2016C25.1003 36.1961 25.1169 36.1905 25.1279 36.185C25.2551 36.1408 25.3768 36.091 25.4984 36.0412C25.5205 36.0302 25.5482 36.0246 25.5703 36.0136C25.692 35.9638 25.8081 35.9196 25.9242 35.8698C25.9519 35.8588 25.974 35.8477 26.0016 35.8366C26.1178 35.7869 26.2339 35.7371 26.3556 35.6818C26.3777 35.6707 26.3998 35.6597 26.4219 35.6486C26.5436 35.5933 26.6597 35.5381 26.7814 35.4828C26.7924 35.4772 26.8035 35.4717 26.8145 35.4662C26.9307 35.4109 27.0413 35.3556 27.1519 35.3003C27.174 35.2892 27.1906 35.2782 27.2127 35.2671C27.3233 35.2118 27.4394 35.151 27.55 35.0902C27.5777 35.0736 27.5998 35.0625 27.6274 35.0459C27.738 34.9851 27.8431 34.9243 27.9537 34.8634C27.9814 34.8469 28.0035 34.8358 28.0311 34.8192C28.1417 34.7584 28.2468 34.692 28.3574 34.6257C28.3795 34.6146 28.3961 34.6036 28.4182 34.587C28.5233 34.5261 28.6228 34.4598 28.7224 34.3934C28.739 34.3824 28.7555 34.3768 28.7666 34.3658C28.8717 34.2994 28.9823 34.2276 29.0873 34.1557C29.1095 34.1391 29.1371 34.1225 29.1592 34.1059C29.2588 34.0395 29.3638 33.9677 29.4634 33.8958C29.491 33.8792 29.5187 33.8571 29.5408 33.8405C29.6403 33.7686 29.7399 33.6967 29.8394 33.6248C29.8615 33.6083 29.8892 33.5861 29.9113 33.5695C30.0108 33.4921 30.1104 33.4202 30.2099 33.3428C30.2265 33.3318 30.2431 33.3152 30.2597 33.3041C30.3537 33.2322 30.4422 33.1604 30.5306 33.0829C30.5528 33.0664 30.5749 33.0498 30.5915 33.0332C30.6855 32.9558 30.7795 32.8784 30.8735 32.7954C30.9012 32.7733 30.9233 32.7512 30.9509 32.7291C31.0394 32.6517 31.1334 32.5687 31.2219 32.4913C31.2495 32.4692 31.2717 32.4471 31.2993 32.4249C31.3878 32.342 31.4763 32.2591 31.5648 32.1761C31.5869 32.154 31.6035 32.1374 31.6256 32.1153C31.7085 32.0379 31.7915 31.9549 31.8689 31.8775C31.8855 31.8609 31.9021 31.8443 31.9242 31.8222C32.0071 31.7393 32.0901 31.6508 32.173 31.5623C32.1952 31.5402 32.2173 31.5181 32.2394 31.4904C32.3223 31.402 32.4053 31.3135 32.4827 31.2306C32.5048 31.2029 32.5325 31.1808 32.5546 31.1532C32.632 31.0647 32.715 30.9762 32.7924 30.8877C32.8145 30.8601 32.8366 30.838 32.8587 30.8103C32.9362 30.7163 33.0191 30.6223 33.0965 30.5283L34.2246 29.0132C34.3297 28.8529 34.4348 28.6925 34.5399 28.5266C34.562 28.4879 34.5896 28.4492 34.6117 28.4161C34.656 28.3442 34.6947 28.2778 34.7389 28.2059C34.761 28.1672 34.7887 28.123 34.8108 28.0843C34.9491 27.852 35.0818 27.6143 35.209 27.371C35.2311 27.3267 35.2587 27.2825 35.2809 27.2327C35.314 27.1664 35.3528 27.0945 35.3859 27.0226C35.4081 26.9729 35.4357 26.9231 35.4578 26.8789C35.5076 26.7793 35.5574 26.6798 35.6016 26.5803C35.6348 26.5084 35.668 26.4365 35.7011 26.3646C35.7288 26.2983 35.762 26.2319 35.7896 26.1656C35.8117 26.1103 35.8394 26.055 35.8615 25.9997C35.8892 25.9333 35.9168 25.867 35.9445 25.8006C35.9721 25.7398 35.9942 25.679 36.0163 25.6181C36.044 25.5573 36.0661 25.4965 36.0938 25.4301C36.138 25.3195 36.1767 25.209 36.221 25.0984C36.2431 25.0375 36.2652 24.9767 36.2873 24.9214C36.3094 24.8551 36.3371 24.7832 36.3592 24.7168C36.3813 24.656 36.4034 24.5952 36.42 24.5344C36.4477 24.4569 36.4698 24.3851 36.4919 24.3076C36.5085 24.2579 36.5251 24.2026 36.5417 24.1528C36.5804 24.0312 36.6136 23.915 36.6468 23.7934C36.6633 23.7381 36.6744 23.6883 36.691 23.633C36.7131 23.5501 36.7352 23.4727 36.7574 23.3897C36.7739 23.3344 36.785 23.2791 36.8016 23.2239C36.8237 23.1299 36.8458 23.0359 36.868 22.9419C36.879 22.9032 36.8901 22.8644 36.8956 22.8202C36.9232 22.693 36.9509 22.5659 36.9785 22.4331C36.9896 22.3834 36.9951 22.3391 37.0062 22.2894C37.0228 22.1954 37.0394 22.1069 37.0615 22.0129C37.0726 21.9631 37.0781 21.9134 37.0891 21.8636C37.1113 21.753 37.1279 21.6424 37.1444 21.5263C37.15 21.4987 37.1555 21.4765 37.1555 21.4489C37.1776 21.3162 37.1942 21.1779 37.2108 21.0397C37.2163 20.9955 37.2219 20.9512 37.2274 20.907C37.2385 20.8075 37.2495 20.7079 37.2606 20.6029C37.2661 20.5586 37.2716 20.5144 37.2772 20.4702C37.2882 20.343 37.2993 20.2158 37.3103 20.0831C37.3103 20.072 37.3103 20.0555 37.3159 20.0444C37.3269 19.9062 37.3325 19.7624 37.3435 19.6186C37.3435 19.5744 37.3491 19.5357 37.3491 19.4915C37.3546 19.3864 37.3601 19.2813 37.3601 19.1707C37.3601 19.1265 37.3601 19.0878 37.3656 19.0436C37.3491 18.9606 37.3491 18.8169 37.3491 18.6731Z" fill="white"/>
<path fill-rule="evenodd" clip-rule="evenodd" d="M50.9426 11.9999H64.467V16.8751H57.1011V18.591H63.5601V23.4662H57.1011V28.4207H50.9426V11.9999ZM51.8808 12.9381V27.4825H56.1629V22.528H62.6219V19.5292H56.1629V15.9369H63.5288V12.9381H51.8808Z" fill="url(#paint1_linear)"/>
<path fill-rule="evenodd" clip-rule="evenodd" d="M70.5056 16.1088C71.4213 15.4687 72.582 15.1628 73.9517 15.1628H74.4208V20.6017L73.8808 20.5192C73.5044 20.4617 73.1577 20.4361 72.8457 20.4361C72.0655 20.4361 71.5655 20.6337 71.2563 20.9479C70.9458 21.2634 70.7489 21.7765 70.7489 22.5769V28.4207H64.8116V15.384H70.5056V16.1088ZM73.4826 16.1149C72.0964 16.1992 71.0863 16.6657 70.3905 17.4659L69.5674 18.4123V16.3222H65.7499V27.4825H69.8107V22.5769C69.8107 21.6356 70.0424 20.8437 70.5876 20.2897C71.1342 19.7344 71.9171 19.4979 72.8457 19.4979C73.0485 19.4979 73.2611 19.5072 73.4826 19.5266V16.1149Z" fill="url(#paint2_linear)"/>
<path fill-rule="evenodd" clip-rule="evenodd" d="M77.7532 16.0103C78.8659 15.4422 80.1071 15.1628 81.4725 15.1628C82.7586 15.1628 83.946 15.4193 85.0269 15.939C86.1187 16.464 86.9869 17.2426 87.6306 18.2557L87.6313 18.2567C88.2835 19.2893 88.5996 20.5076 88.5996 21.8913C88.5996 21.9823 88.5758 22.3974 88.5323 23.0928L88.5048 23.5326H85.2129L87.8699 26.2119L87.5711 26.5414C86.2768 27.9694 84.3665 28.6419 81.937 28.6419C80.4186 28.6419 79.0636 28.3599 77.8834 27.7876C76.7051 27.2161 75.7786 26.4072 75.1254 25.3706C74.473 24.3353 74.1462 23.1695 74.1462 21.8913C74.1462 20.599 74.4662 19.433 75.1139 18.4015C75.758 17.3759 76.6413 16.5781 77.7532 16.0103ZM83.8808 23.5326H80.5333C80.6083 23.5979 80.6908 23.6567 80.7808 23.7095C81.1059 23.9002 81.5328 24.01 82.0918 24.01C82.5874 24.01 82.9762 23.9475 83.2676 23.8399C83.4532 23.7714 83.6585 23.6703 83.8808 23.5326ZM81.4725 16.101C80.2387 16.101 79.1463 16.3524 78.1798 16.8459C77.2124 17.3399 76.4589 18.024 75.9085 18.9005C75.3617 19.7711 75.0845 20.7616 75.0845 21.8913C75.0845 23.0018 75.366 23.9925 75.9191 24.8704C76.4715 25.747 77.2592 26.4421 78.2928 26.9434C79.3247 27.4438 80.5355 27.7037 81.937 27.7037C83.9849 27.7037 85.5056 27.1933 86.5627 26.2262L84.5623 24.209C84.2283 24.4339 83.9034 24.6053 83.5925 24.7201C83.165 24.8779 82.658 24.9482 82.0918 24.9482C81.4121 24.9482 80.8104 24.8146 80.3061 24.5188C79.7973 24.2203 79.435 23.7876 79.2209 23.2323L78.975 22.5944H87.623C87.6321 22.4441 87.6396 22.3168 87.6455 22.2125C87.651 22.1153 87.6551 22.0389 87.6578 21.9829C87.6591 21.9549 87.6601 21.9328 87.6607 21.9162C87.6613 21.8981 87.6614 21.8912 87.6614 21.8913C87.6614 20.6542 87.3804 19.6166 86.8383 18.7582C86.2876 17.8915 85.5522 17.2326 84.6203 16.7846C83.6772 16.3311 82.6305 16.101 81.4725 16.101ZM81.5167 19.5072C81.0893 19.5072 80.7714 19.6203 80.5346 19.8182C80.4176 19.9161 80.3158 20.0363 80.232 20.1836H82.7944C82.7117 20.0431 82.6115 19.9254 82.4953 19.8264C82.2571 19.6233 81.9397 19.5072 81.5167 19.5072ZM79.5702 20.6527V21.1218H84.0404L83.9224 20.5568C83.7994 19.9677 83.532 19.4772 83.104 19.1123C82.6675 18.7403 82.1222 18.5689 81.5167 18.5689C80.9155 18.5689 80.3708 18.7323 79.9329 19.0984C79.499 19.4611 79.2326 19.9614 79.1106 20.5588L79.5702 20.6527Z" fill="url(#paint3_linear)"/>
<path fill-rule="evenodd" clip-rule="evenodd" d="M92.1973 16.0103C93.31 15.4422 94.5512 15.1628 95.9166 15.1628C97.2027 15.1628 98.3901 15.4193 99.471 15.939C100.563 16.464 101.431 17.2426 102.075 18.2557L102.075 18.2567C102.728 19.2893 103.044 20.5076 103.044 21.8913C103.044 21.9823 103.02 22.3974 102.976 23.0928L102.949 23.5326H99.657L102.314 26.2119L102.015 26.5414C100.721 27.9694 98.8107 28.6419 96.3811 28.6419C94.8627 28.6419 93.5077 28.3599 92.3275 27.7876C91.1492 27.2161 90.2227 26.4072 89.5695 25.3706C88.9171 24.3353 88.5903 23.1695 88.5903 21.8913C88.5903 20.599 88.9103 19.433 89.558 18.4015C90.2021 17.3759 91.0854 16.5781 92.1973 16.0103ZM98.3249 23.5326H94.9774C95.0524 23.5979 95.1348 23.6567 95.2249 23.7095C95.55 23.9002 95.9769 24.01 96.5359 24.01C97.0315 24.01 97.4203 23.9475 97.7117 23.8399C97.8973 23.7714 98.1026 23.6703 98.3249 23.5326ZM95.9166 16.101C94.6828 16.101 93.5904 16.3524 92.6239 16.8459C91.6565 17.3399 90.903 18.024 90.3526 18.9005C89.8058 19.7711 89.5285 20.7616 89.5285 21.8913C89.5285 23.0018 89.8101 23.9925 90.3632 24.8704C90.9155 25.747 91.7033 26.4421 92.7369 26.9434C93.7688 27.4438 94.9796 27.7037 96.3811 27.7037C98.429 27.7037 99.9497 27.1933 101.007 26.2262L99.0064 24.209C98.6724 24.4339 98.3475 24.6053 98.0366 24.7201C97.6091 24.8779 97.1021 24.9482 96.5359 24.9482C95.8562 24.9482 95.2545 24.8146 94.7502 24.5188C94.2414 24.2203 93.8791 23.7876 93.665 23.2323L93.4191 22.5944H102.067C102.076 22.4441 102.084 22.3168 102.09 22.2125C102.095 22.1153 102.099 22.0389 102.102 21.9829C102.103 21.9549 102.104 21.9328 102.105 21.9162C102.105 21.8981 102.105 21.8912 102.105 21.8913C102.105 20.6542 101.824 19.6166 101.282 18.7582C100.732 17.8915 99.9963 17.2326 99.0644 16.7846C98.1213 16.3311 97.0746 16.101 95.9166 16.101ZM95.9608 19.5072C95.5334 19.5072 95.2155 19.6203 94.9787 19.8182C94.8617 19.9161 94.7599 20.0363 94.6762 20.1836H97.2385C97.1558 20.0431 97.0556 19.9254 96.9394 19.8264C96.7012 19.6233 96.3838 19.5072 95.9608 19.5072ZM94.0143 20.6527V21.1218H98.4845L98.3665 20.5568C98.2435 19.9677 97.9761 19.4772 97.5481 19.1123C97.1116 18.7403 96.5663 18.5689 95.9608 18.5689C95.3596 18.5689 94.8149 18.7323 94.377 19.0984C93.9431 19.4611 93.6767 19.9614 93.5547 20.5588L94.0143 20.6527Z" fill="url(#paint4_linear)"/>
<path fill-rule="evenodd" clip-rule="evenodd" d="M109.37 15.994C110.216 15.4371 111.206 15.1628 112.329 15.1628C113.201 15.1628 114 15.3231 114.719 15.6608C115.27 15.9198 115.746 16.2795 116.144 16.7382C116.593 16.2973 117.109 15.9443 117.687 15.6806C118.444 15.3355 119.274 15.1628 120.16 15.1628C121.725 15.1628 123.02 15.6532 124.001 16.6525L124.002 16.6535C124.998 17.6749 125.451 19.1691 125.451 21.0508V28.4207H119.514V21.9134C119.514 21.2547 119.405 20.843 119.253 20.6087C119.124 20.4098 118.943 20.3034 118.634 20.3034C118.299 20.3034 118.053 20.4213 117.858 20.661C117.672 20.8909 117.532 21.3182 117.532 22.0461V28.4207H111.595V21.9134C111.595 21.2547 111.486 20.843 111.334 20.6087C111.205 20.4098 111.024 20.3034 110.715 20.3034C110.38 20.3034 110.134 20.4213 109.94 20.661C109.753 20.8909 109.613 21.3182 109.613 22.0461V28.4207H103.676V15.384H109.37V15.994ZM112.329 16.101C111.053 16.101 110.038 16.5078 109.233 17.3128L108.432 18.1135V16.3222H104.614V27.4825H108.675V22.0461C108.675 21.2368 108.823 20.5472 109.211 20.0693C109.592 19.6012 110.109 19.3652 110.715 19.3652C111.307 19.3652 111.801 19.6044 112.121 20.0981C112.418 20.5563 112.533 21.1841 112.533 21.9134V27.4825H116.594V22.0461C116.594 21.2368 116.742 20.5472 117.13 20.0693C117.511 19.6012 118.028 19.3652 118.634 19.3652C119.226 19.3652 119.72 19.6044 120.04 20.0981C120.337 20.5563 120.452 21.1841 120.452 21.9134V27.4825H124.513V21.0508C124.513 19.3054 124.092 18.0903 123.33 17.309C122.553 16.5172 121.514 16.101 120.16 16.101C119.398 16.101 118.702 16.249 118.076 16.5343C117.45 16.8199 116.915 17.2292 116.474 17.7657L116.073 18.2531L115.722 17.7287C115.353 17.1778 114.887 16.7766 114.32 16.5099C113.744 16.2393 113.084 16.101 112.329 16.101Z" fill="url(#paint5_linear)"/>
<path fill-rule="evenodd" clip-rule="evenodd" d="M129.938 16.0081C131.078 15.4411 132.356 15.1628 133.763 15.1628C135.18 15.1628 136.47 15.4407 137.611 16.0081C138.75 16.5747 139.653 17.3724 140.299 18.4015C140.947 19.433 141.267 20.599 141.267 21.8913C141.267 23.1835 140.947 24.3495 140.299 25.381C139.653 26.4092 138.752 27.2123 137.613 27.7846C136.472 28.3578 135.182 28.6419 133.763 28.6419C132.355 28.6419 131.076 28.3574 129.936 27.7846C128.798 27.2127 127.891 26.4103 127.24 25.3827C126.587 24.3516 126.26 23.1852 126.26 21.8913C126.26 20.5974 126.587 19.4309 127.24 18.3999C127.892 17.3713 128.8 16.5743 129.938 16.0081ZM133.763 16.101C132.483 16.101 131.35 16.3535 130.356 16.8482C129.36 17.3437 128.586 18.0285 128.033 18.9021C127.48 19.7732 127.198 20.7633 127.198 21.8913C127.198 23.0193 127.48 24.0094 128.033 24.8804C128.587 25.7549 129.361 26.4455 130.357 26.9463C131.352 27.4462 132.484 27.7037 133.763 27.7037C135.055 27.7037 136.198 27.4458 137.191 26.9463C138.187 26.4459 138.956 25.756 139.504 24.8821C140.051 24.0114 140.328 23.0209 140.328 21.8913C140.328 20.7616 140.051 19.7711 139.504 18.9005C138.956 18.0275 138.189 17.3433 137.193 16.8482C136.199 16.3539 135.056 16.101 133.763 16.101ZM133.763 19.9938C133.316 19.9938 132.975 20.1459 132.698 20.4565C132.428 20.7582 132.264 21.2124 132.264 21.8913C132.264 22.5703 132.428 23.0314 132.7 23.3394C132.979 23.6562 133.32 23.8109 133.763 23.8109C134.207 23.8109 134.548 23.6562 134.827 23.3394C135.099 23.0314 135.263 22.5703 135.263 21.8913C135.263 21.2124 135.099 20.7582 134.829 20.4565C134.552 20.1459 134.211 19.9938 133.763 19.9938ZM131.998 19.8314C132.461 19.3126 133.061 19.0555 133.763 19.0555C134.466 19.0555 135.065 19.3126 135.529 19.8314C136 20.3591 136.201 21.0662 136.201 21.8913C136.201 22.7163 136 23.4274 135.531 23.9599C135.069 24.4836 134.47 24.7491 133.763 24.7491C133.057 24.7491 132.458 24.4836 131.996 23.9599C131.526 23.4274 131.326 22.7163 131.326 21.8913C131.326 21.0662 131.527 20.3591 131.998 19.8314Z" fill="url(#paint6_linear)"/>
<path fill-rule="evenodd" clip-rule="evenodd" d="M144.935 16.0081C146.075 15.4411 147.354 15.1628 148.761 15.1628C150.178 15.1628 151.467 15.4407 152.608 16.0081C153.747 16.5747 154.65 17.3724 155.296 18.4015C155.944 19.433 156.264 20.599 156.264 21.8913C156.264 23.1835 155.944 24.3495 155.296 25.381C154.65 26.4092 153.749 27.2123 152.61 27.7846C151.469 28.3578 150.179 28.6419 148.761 28.6419C147.352 28.6419 146.073 28.3574 144.933 27.7846C143.795 27.2127 142.889 26.4103 142.237 25.3827C141.584 24.3516 141.257 23.1852 141.257 21.8913C141.257 20.5974 141.584 19.4309 142.237 18.3999C142.889 17.3713 143.797 16.5743 144.935 16.0081ZM148.761 16.101C147.48 16.101 146.347 16.3535 145.353 16.8482C144.357 17.3437 143.583 18.0285 143.03 18.9021C142.478 19.7732 142.196 20.7633 142.196 21.8913C142.196 23.0193 142.478 24.0094 143.03 24.8804C143.584 25.7549 144.358 26.4455 145.355 26.9463C146.349 27.4462 147.482 27.7037 148.761 27.7037C150.052 27.7037 151.195 27.4458 152.189 26.9463C153.184 26.4459 153.953 25.756 154.502 24.8821C155.048 24.0114 155.326 23.0209 155.326 21.8913C155.326 20.7616 155.048 19.7711 154.502 18.9005C153.953 18.0275 153.186 17.3433 152.19 16.8482C151.197 16.3539 150.053 16.101 148.761 16.101ZM148.761 19.9938C148.313 19.9938 147.972 20.1459 147.695 20.4565C147.425 20.7582 147.261 21.2124 147.261 21.8913C147.261 22.5703 147.425 23.0314 147.697 23.3394C147.976 23.6562 148.317 23.8109 148.761 23.8109C149.204 23.8109 149.545 23.6562 149.824 23.3394C150.096 23.0314 150.26 22.5703 150.26 21.8913C150.26 21.2124 150.096 20.7582 149.826 20.4565C149.549 20.1459 149.208 19.9938 148.761 19.9938ZM146.995 19.8314C147.459 19.3126 148.058 19.0555 148.761 19.0555C149.463 19.0555 150.063 19.3126 150.526 19.8314C150.998 20.3591 151.198 21.0662 151.198 21.8913C151.198 22.7163 150.998 23.4274 150.528 23.9599C150.066 24.4836 149.467 24.7491 148.761 24.7491C148.054 24.7491 147.455 24.4836 146.993 23.9599C146.524 23.4274 146.323 22.7163 146.323 21.8913C146.323 21.0662 146.524 20.3591 146.995 19.8314Z" fill="url(#paint7_linear)"/>
<path fill-rule="evenodd" clip-rule="evenodd" d="M163.59 15.5478C164.268 15.2873 164.995 15.1628 165.771 15.1628C167.359 15.1628 168.686 15.6448 169.696 16.6484C170.723 17.6689 171.195 19.1648 171.195 21.0508V28.4207H165.257V21.9134C165.257 21.2605 165.139 20.8563 164.975 20.6256C164.831 20.4245 164.616 20.3034 164.244 20.3034C163.809 20.3034 163.487 20.4478 163.235 20.7318C162.998 20.9993 162.833 21.4751 162.833 22.2673V28.4207H156.896V15.384H162.59V16.0609C162.902 15.855 163.235 15.6839 163.59 15.5478ZM165.771 16.101C165.097 16.101 164.486 16.2087 163.926 16.4237C163.367 16.6381 162.876 16.9561 162.453 17.3792L161.652 18.1799V16.3222H157.834V27.4825H161.895V22.2673C161.895 21.3785 162.074 20.6268 162.533 20.1091C162.978 19.6078 163.563 19.3652 164.244 19.3652C164.862 19.3652 165.388 19.5897 165.739 20.0811C166.068 20.543 166.196 21.1784 166.196 21.9134V27.4825H170.256V21.0508C170.256 19.3094 169.821 18.0959 169.034 17.3138C168.23 16.5148 167.157 16.101 165.771 16.101Z" fill="url(#paint8_linear)"/>
<path d="M54.7519 15.6319V18.286H61.2108V22.223H54.7519V27.1775H49.5316V11.6949H62.1177V15.6319H54.7519Z" fill="#FFFEFD"/>
<path d="M72.0717 14.8578V19.2814C71.6735 19.2206 71.303 19.1929 70.9657 19.1929C69.257 19.1929 68.3998 20.061 68.3998 21.8028V27.1775H63.4008V15.079H68.1565V16.3839C69.0413 15.3665 70.3464 14.8578 72.0717 14.8578Z" fill="#FFFEFD"/>
<path d="M86.184 22.2894H77.7785C77.9555 22.7484 78.2486 23.0967 78.6633 23.34C79.0781 23.5833 79.5923 23.705 80.2117 23.705C80.7426 23.705 81.1905 23.6386 81.5499 23.5059C81.9094 23.3732 82.3075 23.1465 82.7333 22.8203L85.3435 25.4523C84.1656 26.7517 82.4015 27.3987 80.0569 27.3987C78.597 27.3987 77.314 27.1277 76.208 26.5914C75.102 26.055 74.2449 25.303 73.6421 24.3464C73.0394 23.3898 72.7352 22.3116 72.7352 21.1172C72.7352 19.9062 73.0338 18.828 73.6311 17.8769C74.2283 16.9258 75.0467 16.1849 76.0864 15.654C77.126 15.1232 78.2928 14.8578 79.5923 14.8578C80.8145 14.8578 81.9315 15.1011 82.9435 15.5877C83.9555 16.0743 84.7573 16.7876 85.3545 17.7331C85.9518 18.6787 86.2504 19.8067 86.2504 21.1172C86.2504 21.1891 86.2283 21.5817 86.184 22.2894ZM78.3536 18.6842C78.0163 18.9662 77.7951 19.3643 77.69 19.8786H81.5831C81.4781 19.3754 81.2569 18.9828 80.9195 18.6953C80.5822 18.4077 80.1509 18.264 79.6366 18.264C79.1168 18.264 78.691 18.4022 78.3536 18.6842Z" fill="#FFFEFD"/>
<path d="M100.628 22.2894H92.2226C92.3996 22.7484 92.6927 23.0967 93.1074 23.34C93.5222 23.5833 94.0364 23.705 94.6558 23.705C95.1867 23.705 95.6346 23.6386 95.994 23.5059C96.3535 23.3732 96.7516 23.1465 97.1774 22.8203L99.7876 25.4523C98.6097 26.7517 96.8456 27.3987 94.5009 27.3987C93.041 27.3987 91.7581 27.1277 90.6521 26.5914C89.5461 26.055 88.689 25.303 88.0862 24.3464C87.4835 23.3898 87.1793 22.3116 87.1793 21.1172C87.1793 19.9062 87.4779 18.828 88.0752 17.8769C88.6724 16.9258 89.4908 16.1849 90.5305 15.654C91.5701 15.1232 92.7369 14.8578 94.0364 14.8578C95.2586 14.8578 96.3756 15.1011 97.3876 15.5877C98.3996 16.0743 99.2014 16.7876 99.7986 17.7331C100.396 18.6787 100.694 19.8067 100.694 21.1172C100.694 21.1891 100.672 21.5817 100.628 22.2894ZM92.7977 18.6842C92.4604 18.9662 92.2392 19.3643 92.1341 19.8786H96.0272C95.9221 19.3754 95.7009 18.9828 95.3636 18.6953C95.0263 18.4077 94.595 18.264 94.0807 18.264C93.5609 18.264 93.1351 18.4022 92.7977 18.6842Z" fill="#FFFEFD"/>
<path d="M121.786 16.207C122.665 17.1083 123.102 18.463 123.102 20.2767V27.1775H118.103V21.1393C118.103 19.7514 117.655 19.0602 116.753 19.0602C116.283 19.0602 115.902 19.2371 115.614 19.591C115.327 19.9449 115.183 20.5034 115.183 21.272V27.1775H110.184V21.1393C110.184 19.7514 109.736 19.0602 108.835 19.0602C108.365 19.0602 107.983 19.2371 107.695 19.591C107.408 19.9449 107.264 20.5034 107.264 21.272V27.1775H102.265V15.079H107.021V16.207C107.922 15.3057 109.061 14.8578 110.449 14.8578C111.262 14.8578 111.992 15.0071 112.639 15.3112C113.286 15.6153 113.817 16.0743 114.232 16.6936C114.718 16.1019 115.31 15.6485 116.001 15.3333C116.693 15.0181 117.456 14.8578 118.28 14.8578C119.74 14.8578 120.906 15.3057 121.786 16.207Z" fill="#FFFEFD"/>
<path d="M128.267 26.5914C127.199 26.055 126.359 25.3085 125.756 24.3575C125.153 23.4064 124.849 22.3281 124.849 21.1172C124.849 19.9062 125.153 18.828 125.756 17.8769C126.359 16.9258 127.199 16.1849 128.267 15.654C129.334 15.1232 130.54 14.8578 131.883 14.8578C133.238 14.8578 134.455 15.1232 135.522 15.654C136.589 16.1849 137.424 16.9258 138.022 17.8769C138.619 18.828 138.917 19.9062 138.917 21.1172C138.917 22.3281 138.619 23.4064 138.022 24.3575C137.424 25.3085 136.589 26.055 135.522 26.5914C134.455 27.1277 133.238 27.3987 131.883 27.3987C130.54 27.3987 129.334 27.1277 128.267 26.5914ZM133.299 22.8756C133.669 22.4553 133.852 21.8692 133.852 21.1172C133.852 20.3652 133.669 19.7846 133.299 19.3699C132.928 18.9551 132.458 18.7506 131.883 18.7506C131.308 18.7506 130.838 18.9551 130.468 19.3699C130.097 19.7846 129.915 20.3652 129.915 21.1172C129.915 21.8692 130.097 22.4553 130.468 22.8756C130.838 23.2958 131.308 23.5059 131.883 23.5059C132.458 23.5059 132.928 23.2958 133.299 22.8756Z" fill="#FFFEFD"/>
<path d="M143.264 26.5914C142.197 26.055 141.356 25.3085 140.753 24.3575C140.151 23.4064 139.846 22.3281 139.846 21.1172C139.846 19.9062 140.151 18.828 140.753 17.8769C141.356 16.9258 142.197 16.1849 143.264 15.654C144.331 15.1232 145.537 14.8578 146.881 14.8578C148.235 14.8578 149.452 15.1232 150.519 15.654C151.586 16.1849 152.422 16.9258 153.019 17.8769C153.616 18.828 153.915 19.9062 153.915 21.1172C153.915 22.3281 153.616 23.4064 153.019 24.3575C152.422 25.3085 151.586 26.055 150.519 26.5914C149.452 27.1277 148.235 27.3987 146.881 27.3987C145.537 27.3987 144.331 27.1277 143.264 26.5914ZM148.296 22.8756C148.667 22.4553 148.849 21.8692 148.849 21.1172C148.849 20.3652 148.667 19.7846 148.296 19.3699C147.926 18.9551 147.456 18.7506 146.881 18.7506C146.305 18.7506 145.835 18.9551 145.465 19.3699C145.094 19.7846 144.912 20.3652 144.912 21.1172C144.912 21.8692 145.094 22.4553 145.465 22.8756C145.835 23.2958 146.305 23.5059 146.881 23.5059C147.456 23.5059 147.926 23.2958 148.296 22.8756Z" fill="#FFFEFD"/>
<path d="M167.485 16.207C168.392 17.1083 168.845 18.463 168.845 20.2767V27.1775H163.846V21.1393C163.846 19.7514 163.354 19.0602 162.364 19.0602C161.806 19.0602 161.352 19.2537 161.004 19.6463C160.656 20.0389 160.484 20.6527 160.484 21.4932V27.1775H155.485V15.079H160.241V16.2733C160.711 15.8033 161.258 15.4494 161.878 15.2117C162.497 14.9739 163.166 14.8578 163.891 14.8578C165.378 14.8578 166.578 15.3057 167.485 16.207Z" fill="#FFFEFD"/>
<defs>
<linearGradient id="paint0_linear" x1="-0.00242211" y1="18.675" x2="37.3467" y2="18.675" gradientUnits="userSpaceOnUse">
<stop stop-color="#70D5EA"/>
<stop offset="0.5" stop-color="#D483FB"/>
<stop offset="1" stop-color="#FF3CAC"/>
</linearGradient>
<linearGradient id="paint1_linear" x1="51.1631" y1="20.2112" x2="64.2469" y2="20.2112" gradientUnits="userSpaceOnUse">
<stop stop-color="#3B6AFF"/>
<stop offset="0.5" stop-color="#D483FB"/>
<stop offset="1" stop-color="#E21485"/>
</linearGradient>
<linearGradient id="paint2_linear" x1="65.0322" y1="21.7926" x2="74.2008" y2="21.7926" gradientUnits="userSpaceOnUse">
<stop stop-color="#3B6AFF"/>
<stop offset="0.5" stop-color="#D483FB"/>
<stop offset="1" stop-color="#E21485"/>
</linearGradient>
<linearGradient id="paint3_linear" x1="74.3669" y1="21.9032" x2="88.3797" y2="21.9032" gradientUnits="userSpaceOnUse">
<stop stop-color="#3B6AFF"/>
<stop offset="0.5" stop-color="#D483FB"/>
<stop offset="1" stop-color="#E21485"/>
</linearGradient>
<linearGradient id="paint4_linear" x1="88.811" y1="21.9032" x2="102.824" y2="21.9032" gradientUnits="userSpaceOnUse">
<stop stop-color="#3B6AFF"/>
<stop offset="0.5" stop-color="#D483FB"/>
<stop offset="1" stop-color="#E21485"/>
</linearGradient>
<linearGradient id="paint5_linear" x1="103.897" y1="21.7926" x2="125.231" y2="21.7926" gradientUnits="userSpaceOnUse">
<stop stop-color="#3B6AFF"/>
<stop offset="0.5" stop-color="#D483FB"/>
<stop offset="1" stop-color="#E21485"/>
</linearGradient>
<linearGradient id="paint6_linear" x1="126.481" y1="21.9032" x2="141.046" y2="21.9032" gradientUnits="userSpaceOnUse">
<stop stop-color="#3B6AFF"/>
<stop offset="0.5" stop-color="#D483FB"/>
<stop offset="1" stop-color="#E21485"/>
</linearGradient>
<linearGradient id="paint7_linear" x1="141.478" y1="21.9032" x2="156.043" y2="21.9032" gradientUnits="userSpaceOnUse">
<stop stop-color="#3B6AFF"/>
<stop offset="0.5" stop-color="#D483FB"/>
<stop offset="1" stop-color="#E21485"/>
</linearGradient>
<linearGradient id="paint8_linear" x1="157.116" y1="21.7926" x2="170.974" y2="21.7926" gradientUnits="userSpaceOnUse">
<stop stop-color="#3B6AFF"/>
<stop offset="0.5" stop-color="#D483FB"/>
<stop offset="1" stop-color="#E21485"/>
</linearGradient>
</defs>
</svg>
