<svg width="400" height="53" viewBox="0 0 400 53" fill="none" xmlns="http://www.w3.org/2000/svg">
<path d="M17.5009 13.1988V22.0969H39.1546V35.2957H17.5009V51.9055H0V0H42.1951V13.1988H17.5009V13.1988Z" fill="#242249"/>
<path d="M75.5653 10.6035V25.4336C74.2305 25.2297 72.9884 25.137 71.8575 25.137C66.1289 25.137 63.2554 28.0475 63.2554 33.8868V51.9054H46.496V11.345H62.4396V15.7199C65.4059 12.309 69.7811 10.6035 75.5653 10.6035Z" fill="#242249"/>
<path d="M122.877 35.5181H94.6978C95.2911 37.0568 96.2737 38.2246 97.6641 39.0403C99.0545 39.8559 100.779 40.2638 102.855 40.2638C104.635 40.2638 106.136 40.0413 107.342 39.5964C108.547 39.1515 109.881 38.3915 111.309 37.2978L120.059 46.1217C116.111 50.478 110.197 52.6469 102.336 52.6469C97.4416 52.6469 93.1405 51.7386 89.4327 49.9404C85.7249 48.1423 82.8513 45.6212 80.8306 42.4141C78.8098 39.2071 77.7902 35.5923 77.7902 31.5882C77.7902 27.5284 78.7913 23.9136 80.7935 20.7251C82.7957 17.5366 85.5395 15.0526 89.0249 13.2729C92.5102 11.4933 96.422 10.6035 100.779 10.6035C104.876 10.6035 108.621 11.4192 112.013 13.0505C115.406 14.6818 118.094 17.0732 120.096 20.2431C122.099 23.413 123.1 27.1947 123.1 31.5882C123.1 31.8291 123.026 33.1453 122.877 35.5181ZM96.6259 23.4316C95.495 24.377 94.7535 25.7117 94.4012 27.4357H107.453C107.101 25.7488 106.359 24.4326 105.228 23.4687C104.097 22.5047 102.651 22.0227 100.927 22.0227C99.1843 22.0227 97.7568 22.4862 96.6259 23.4316Z" fill="#242249"/>
<path d="M171.301 35.5181H143.122C143.715 37.0568 144.698 38.2246 146.088 39.0403C147.478 39.8559 149.203 40.2638 151.279 40.2638C153.059 40.2638 154.56 40.0413 155.765 39.5964C156.971 39.1515 158.305 38.3915 159.733 37.2978L168.483 46.1217C164.534 50.478 158.62 52.6469 150.76 52.6469C145.866 52.6469 141.565 51.7386 137.857 49.9404C134.149 48.1423 131.275 45.6212 129.255 42.4141C127.234 39.2071 126.214 35.5923 126.214 31.5882C126.214 27.5284 127.215 23.9136 129.217 20.7251C131.22 17.5366 133.963 15.0526 137.449 13.2729C140.934 11.4933 144.846 10.6035 149.203 10.6035C153.3 10.6035 157.045 11.4192 160.437 13.0505C163.83 14.6818 166.518 17.0732 168.52 20.2431C170.523 23.413 171.524 27.1947 171.524 31.5882C171.524 31.8291 171.45 33.1453 171.301 35.5181ZM145.05 23.4316C143.919 24.377 143.177 25.7117 142.825 27.4357H155.877C155.524 25.7488 154.783 24.4326 153.652 23.4687C152.521 22.5047 151.075 22.0227 149.351 22.0227C147.608 22.0227 146.181 22.4862 145.05 23.4316Z" fill="#242249"/>
<path d="M242.232 15.1267C245.18 18.1483 246.644 22.6901 246.644 28.7704V51.9054H229.885V31.6623C229.885 27.0093 228.383 24.6921 225.362 24.6921C223.786 24.6921 222.507 25.2853 221.542 26.4718C220.578 27.6582 220.096 29.5305 220.096 32.1072V51.9054H203.337V31.6623C203.337 27.0093 201.835 24.6921 198.814 24.6921C197.238 24.6921 195.958 25.2853 194.994 26.4718C194.03 27.6582 193.548 29.5305 193.548 32.1072V51.9054H176.789V11.345H192.733V15.1267C195.755 12.1051 199.574 10.6035 204.227 10.6035C206.952 10.6035 209.399 11.104 211.568 12.1236C213.737 13.1432 215.517 14.6818 216.908 16.758C218.539 14.7745 220.523 13.2544 222.84 12.1978C225.158 11.1411 227.716 10.6035 230.478 10.6035C235.373 10.6035 239.284 12.1051 242.232 15.1267Z" fill="#242249"/>
<path d="M263.96 49.9404C260.382 48.1423 257.564 45.6397 255.543 42.4512C253.522 39.2627 252.503 35.6479 252.503 31.5882C252.503 27.5284 253.522 23.9136 255.543 20.7251C257.564 17.5366 260.382 15.0526 263.96 13.2729C267.538 11.4933 271.58 10.6035 276.085 10.6035C280.627 10.6035 284.705 11.4933 288.283 13.2729C291.861 15.0526 294.661 17.5366 296.663 20.7251C298.665 23.9136 299.666 27.5284 299.666 31.5882C299.666 35.6479 298.665 39.2627 296.663 42.4512C294.661 45.6397 291.861 48.1423 288.283 49.9404C284.705 51.7386 280.627 52.6469 276.085 52.6469C271.58 52.6469 267.538 51.7386 263.96 49.9404ZM280.831 37.4831C282.073 36.0743 282.685 34.1093 282.685 31.5882C282.685 29.067 282.073 27.1206 280.831 25.7302C279.588 24.3399 278.013 23.654 276.085 23.654C274.157 23.654 272.581 24.3399 271.339 25.7302C270.096 27.1206 269.485 29.067 269.485 31.5882C269.485 34.1093 270.096 36.0743 271.339 37.4831C272.581 38.892 274.157 39.5964 276.085 39.5964C278.013 39.5964 279.588 38.892 280.831 37.4831Z" fill="#242249"/>
<path d="M314.238 49.9404C310.66 48.1423 307.842 45.6397 305.821 42.4512C303.801 39.2627 302.781 35.6479 302.781 31.5882C302.781 27.5284 303.801 23.9136 305.821 20.7251C307.842 17.5366 310.66 15.0526 314.238 13.2729C317.816 11.4933 321.858 10.6035 326.363 10.6035C330.905 10.6035 334.983 11.4933 338.561 13.2729C342.139 15.0526 344.939 17.5366 346.941 20.7251C348.943 23.9136 349.944 27.5284 349.944 31.5882C349.944 35.6479 348.943 39.2627 346.941 42.4512C344.939 45.6397 342.139 48.1423 338.561 49.9404C334.983 51.7386 330.905 52.6469 326.363 52.6469C321.858 52.6469 317.816 51.7386 314.238 49.9404ZM331.109 37.4831C332.351 36.0743 332.963 34.1093 332.963 31.5882C332.963 29.067 332.351 27.1206 331.109 25.7302C329.867 24.3399 328.291 23.654 326.363 23.654C324.435 23.654 322.859 24.3399 321.617 25.7302C320.375 27.1206 319.763 29.067 319.763 31.5882C319.763 34.1093 320.375 36.0743 321.617 37.4831C322.859 38.892 324.435 39.5964 326.363 39.5964C328.291 39.5964 329.867 38.892 331.109 37.4831Z" fill="#242249"/>
<path d="M395.439 15.1267C398.48 18.1483 400 22.6901 400 28.7704V51.9054H383.241V31.6623C383.241 27.0093 381.591 24.6921 378.272 24.6921C376.4 24.6921 374.879 25.341 373.711 26.6571C372.544 27.9733 371.969 30.031 371.969 32.8487V51.9054H355.209V11.345H371.153V15.3492C372.729 13.7735 374.564 12.5871 376.641 11.7899C378.717 10.9928 380.96 10.6035 383.389 10.6035C388.376 10.6035 392.399 12.1051 395.439 15.1267Z" fill="#242249"/>
</svg>
