<svg width="30" height="30" viewBox="0 0 30 30" fill="none" xmlns="http://www.w3.org/2000/svg">
<circle cx="15" cy="15" r="15" fill="#5A568C" fill-opacity="0.22"/>
<path d="M16.2248 21.566L20.1631 17.191C20.6479 16.652 20.6059 15.8216 20.0651 15.3369C19.527 14.8521 18.6966 14.8959 18.2119 15.4349L16.5625 17.2663L16.5625 9.3125C16.5625 8.58712 15.9754 8 15.25 8C14.5246 8 13.9375 8.58712 13.9375 9.3125L13.9375 17.268L12.2881 15.434C11.8025 14.895 10.973 14.8513 10.4349 15.336C10.147 15.5959 10 15.9538 10 16.3125C10 16.6258 10.1111 16.9399 10.3369 17.1901L14.2735 21.5651C14.522 21.8416 14.8773 22 15.2491 22C15.621 22 15.9763 21.8416 16.2248 21.566Z" fill="url(#paint0_linear)"/>
<defs>
<linearGradient id="paint0_linear" x1="-1.26414" y1="4.13306" x2="-0.376586" y2="22.7408" gradientUnits="userSpaceOnUse">
<stop stop-color="#6025F5"/>
<stop offset="1" stop-color="#FF5555"/>
</linearGradient>
</defs>
</svg>
