<svg width="29" height="24" viewBox="0 0 29 24" fill="none" xmlns="http://www.w3.org/2000/svg">
<path d="M12.0009 24C18.6289 24 24.0019 18.6274 24.0019 12C24.0019 5.37258 18.6289 0 12.0009 0C5.37301 0 0 5.37258 0 12C0 18.6274 5.37301 24 12.0009 24Z" fill="url(#paint0_linear)"/>
<path opacity="0.35" d="M23.9983 11.7228C23.9983 11.7015 23.9983 11.6766 23.9983 11.6553C23.9948 11.5665 23.9912 11.4741 23.9877 11.3852V11.3817C23.9841 11.2893 23.977 11.2005 23.9699 11.1116C23.9699 11.0903 23.9664 11.0654 23.9664 11.0441C23.9593 10.9553 23.9521 10.8664 23.9415 10.7812C23.9415 10.7776 23.9415 10.7776 23.9415 10.774C23.9308 10.6852 23.9237 10.5964 23.9095 10.5075C23.9059 10.4862 23.9024 10.4613 23.9024 10.44C23.8917 10.3547 23.8775 10.2659 23.8669 10.1806C23.8669 10.1771 23.8669 10.1771 23.8669 10.1735C23.8526 10.0847 23.8384 9.9994 23.8242 9.91056C23.8207 9.88924 23.8171 9.86792 23.8135 9.84305C23.7993 9.75776 23.7816 9.67603 23.7638 9.59075C23.7638 9.5872 23.7638 9.58364 23.7602 9.58009C23.7425 9.49481 23.7247 9.40597 23.7034 9.32069C23.6998 9.29936 23.6927 9.27805 23.6892 9.25673C23.6714 9.175 23.6501 9.09327 23.6288 9.01154C23.6288 9.00798 23.6252 9.00443 23.6252 9.00088C23.6039 8.91559 23.579 8.83031 23.5577 8.74858C23.5506 8.72726 23.547 8.70594 23.5399 8.68462C23.5186 8.60289 23.4937 8.52471 23.4688 8.44654C23.4688 8.44298 23.4653 8.43588 23.4653 8.43232C23.4404 8.35059 23.412 8.26531 23.3835 8.18358C23.3764 8.16226 23.3693 8.14094 23.3622 8.12317C23.3373 8.045 23.3089 7.96682 23.2805 7.8922C23.2769 7.88865 23.2769 7.88154 23.2734 7.87799C23.245 7.79626 23.213 7.71453 23.181 7.63635C23.1739 7.61503 23.1668 7.59726 23.1561 7.57594C23.1277 7.50132 23.0957 7.4267 23.0637 7.35208C23.0602 7.34497 23.0602 7.34142 23.0566 7.33431C23.0246 7.25614 22.9891 7.17796 22.9535 7.09623C22.9464 7.07491 22.9358 7.05714 22.9251 7.03582C22.8931 6.9612 22.8576 6.89013 22.8221 6.81906C22.8185 6.81195 22.8149 6.8084 22.8149 6.80129C22.7794 6.72312 22.7403 6.6485 22.7012 6.57032C22.6906 6.55255 22.6799 6.53123 22.6728 6.51346C22.6373 6.44239 22.5982 6.37133 22.5626 6.30381C22.5591 6.2967 22.5555 6.2896 22.552 6.28604C22.5129 6.21142 22.4702 6.1368 22.4276 6.06217C22.4169 6.04441 22.4063 6.02664 22.3956 6.00532C22.3565 5.9378 22.3174 5.87384 22.2783 5.80633C21.4859 4.51287 24.176 10.4045 17.6549 16.9215C9.82251 24.7462 3.45067 20.4536 4.26448 21.1714C4.36753 21.2603 4.47415 21.3456 4.58076 21.4308C4.60564 21.4486 4.62696 21.4664 4.65183 21.4841C4.70159 21.5232 4.74778 21.5588 4.79754 21.5943C4.82597 21.6156 4.8544 21.6369 4.88283 21.6583C4.92902 21.6902 4.97167 21.7258 5.01787 21.7578C5.0463 21.7791 5.07828 21.8004 5.10671 21.8217C5.15291 21.8537 5.19555 21.8857 5.24175 21.9141C5.27374 21.9354 5.30216 21.9568 5.33415 21.9745C5.38035 22.0065 5.42655 22.0349 5.4763 22.0669C5.50473 22.0847 5.53671 22.106 5.56514 22.1238C5.61845 22.1557 5.6682 22.1877 5.72151 22.2197C5.74638 22.2339 5.77126 22.2517 5.79613 22.2659C5.87432 22.3121 5.9525 22.3583 6.03068 22.4045C6.03068 22.4045 6.03068 22.4045 6.03423 22.4045C6.11242 22.4507 6.1906 22.4933 6.27233 22.536C6.29721 22.5502 6.32564 22.5644 6.35052 22.5786C6.40382 22.607 6.46068 22.6355 6.51399 22.6639C6.54597 22.6817 6.57796 22.6959 6.60994 22.7101C6.65969 22.735 6.70944 22.7598 6.76275 22.7847C6.79473 22.8025 6.83027 22.8167 6.86225 22.8345C6.912 22.8593 6.96176 22.8806 7.01151 22.9055C7.04349 22.9197 7.07903 22.9375 7.11101 22.9517C7.16432 22.9766 7.21407 22.9979 7.26738 23.0192C7.29936 23.0334 7.33135 23.0477 7.36333 23.0619C7.42019 23.0867 7.47705 23.1081 7.53391 23.1329C7.56234 23.1436 7.59077 23.1543 7.6192 23.1685C7.70449 23.2005 7.78978 23.236 7.87862 23.268C7.96391 23.3 8.05275 23.3284 8.13804 23.3604C8.16647 23.371 8.1949 23.3781 8.22333 23.3888C8.28375 23.4101 8.34061 23.4279 8.40102 23.4456C8.43656 23.4563 8.46854 23.467 8.50408 23.4776C8.55738 23.4954 8.61424 23.5096 8.66755 23.5274C8.70309 23.538 8.73862 23.5487 8.77771 23.5594C8.83102 23.5736 8.88788 23.5878 8.94119 23.602C8.97672 23.6127 9.01581 23.6198 9.05135 23.6304C9.10821 23.6446 9.16507 23.6589 9.21838 23.6731C9.25392 23.6802 9.28945 23.6908 9.32499 23.6979C9.3854 23.7122 9.44937 23.7264 9.50978 23.737C9.53821 23.7441 9.5702 23.7512 9.59863 23.7548C9.78342 23.7939 9.96821 23.8259 10.1566 23.8543C10.1885 23.8578 10.217 23.8614 10.249 23.8685C10.3129 23.8792 10.3769 23.8863 10.4409 23.8934C10.4764 23.8969 10.5155 23.904 10.551 23.9076C10.6079 23.9147 10.6683 23.9218 10.7252 23.9289C10.7642 23.9325 10.8033 23.936 10.8389 23.9396C10.8957 23.9467 10.9526 23.9502 11.013 23.9538C11.0521 23.9573 11.0912 23.9609 11.1303 23.9645C11.1907 23.968 11.2476 23.9716 11.308 23.9751C11.3435 23.9787 11.3826 23.9787 11.4181 23.9822C11.4821 23.9858 11.5496 23.9893 11.6136 23.9893C11.6456 23.9893 11.6776 23.9929 11.7095 23.9929C11.8055 23.9964 11.905 23.9964 12.0009 23.9964C18.6287 23.9964 24.0019 18.6236 24.0019 11.9964C24.0019 11.9076 24.0019 11.8152 23.9983 11.7228Z" fill="white"/>
<path opacity="0.44" d="M12.0009 0C5.37324 0 0 5.37282 0 12C0 15.0098 1.10876 17.7566 2.93538 19.8638C5.30927 19.3841 7.73647 18.9896 9.6697 16.3992C11.5354 13.9011 7.13234 11.1259 10.7571 6.55967C12.1502 4.80426 16.1979 1.53864 16.8482 1.01984C15.3663 0.366004 13.7245 0 12.0009 0Z" fill="#761FFF"/>
<path opacity="0.53" d="M11.5461 0.0106812C5.12803 0.248762 0 5.52564 0 12C0 14.3346 0.668101 16.5129 1.82306 18.3572C1.951 18.1546 2.07538 17.9378 2.1962 17.7069C3.72786 14.7362 1.93678 12.0356 3.47199 9.06843C5.51184 5.12055 9.74788 6.85108 11.969 2.91385C12.5127 1.94376 11.9761 1.07316 11.5461 0.0106812Z" fill="#5FE0ED"/>
<path opacity="0.19" d="M24.0019 12C24.0019 11.9076 24.0019 11.8152 23.9983 11.7228C23.9983 11.7051 23.9983 11.6909 23.9983 11.6731C23.9947 11.5843 23.9912 11.4954 23.9876 11.4066C23.9876 11.3888 23.9841 11.371 23.9841 11.3533C23.9805 11.2609 23.9734 11.172 23.9663 11.0797C23.9663 11.0761 23.9663 11.0726 23.9663 11.0654C23.9592 10.9766 23.9521 10.8913 23.9414 10.8025C23.9414 10.7847 23.9379 10.7705 23.9379 10.7527C23.9272 10.6675 23.9201 10.5786 23.9095 10.4933C23.9059 10.4756 23.9059 10.4578 23.9024 10.44C23.8917 10.3512 23.8775 10.2659 23.8668 10.1771C23.8668 10.17 23.8633 10.1629 23.8633 10.1522C23.849 10.0705 23.8384 9.9852 23.8206 9.90347C23.8171 9.88925 23.8171 9.87149 23.8135 9.85728C23.7993 9.77199 23.7815 9.69026 23.7638 9.60498C23.7602 9.58721 23.7566 9.56589 23.7531 9.54812C23.7353 9.46284 23.7176 9.38111 23.6998 9.29583C23.6962 9.28517 23.6927 9.27451 23.6927 9.26029C23.6749 9.18212 23.6571 9.10394 23.6358 9.02577C23.6323 9.01155 23.6287 8.99378 23.6252 8.97957C23.6038 8.89784 23.5825 8.81611 23.5612 8.73794C23.5541 8.71662 23.5505 8.69885 23.5434 8.67753C23.5221 8.5958 23.4972 8.51762 23.4724 8.4359C23.4688 8.42168 23.4617 8.40747 23.4581 8.39325C23.4368 8.32218 23.4119 8.24756 23.3871 8.17649C23.3835 8.16228 23.3764 8.14451 23.3728 8.1303C23.348 8.05212 23.3195 7.97394 23.2911 7.89932C23.284 7.878 23.2769 7.85668 23.2698 7.83891C23.2414 7.76429 23.2129 7.68612 23.1845 7.61149C23.1774 7.59373 23.1703 7.57596 23.1632 7.55819C23.1347 7.49068 23.1099 7.42316 23.0814 7.35565C23.0743 7.34143 23.0672 7.32366 23.0601 7.30945C23.0281 7.23483 22.9961 7.16376 22.9642 7.08914C22.9535 7.06782 22.9428 7.04649 22.9357 7.02517C22.9038 6.9541 22.8718 6.88304 22.8362 6.81197C22.8256 6.79065 22.8185 6.77288 22.8078 6.75156C22.7758 6.69115 22.7474 6.62719 22.7154 6.56678C22.7083 6.54901 22.6976 6.5348 22.6905 6.51703C22.655 6.44596 22.6195 6.37845 22.5804 6.31093C22.5697 6.28961 22.5555 6.26474 22.5448 6.24341C22.5093 6.1759 22.4702 6.11194 22.4347 6.04442C22.4204 6.0231 22.4098 6.00178 22.3956 5.98046C22.3636 5.9236 22.328 5.86675 22.2961 5.8099C22.2819 5.78857 22.2712 5.76725 22.257 5.74593C22.2214 5.68552 22.1823 5.62511 22.1468 5.56826C22.1326 5.54339 22.1184 5.52206 22.1006 5.49719C22.0615 5.43678 22.0189 5.37282 21.9798 5.31241C21.9656 5.28754 21.9478 5.26622 21.9336 5.24134C21.898 5.18804 21.8625 5.13829 21.827 5.08499C21.8092 5.06012 21.7914 5.03524 21.7737 5.00682C21.7381 4.95707 21.699 4.90377 21.6635 4.85402C21.6457 4.82914 21.628 4.80782 21.6102 4.78295C21.5675 4.72609 21.5249 4.66924 21.4787 4.61238C21.4609 4.58751 21.4396 4.56263 21.4218 4.54131C21.3828 4.49512 21.3472 4.44537 21.3081 4.39917C21.2868 4.37075 21.2619 4.34232 21.2371 4.31389C21.2015 4.27125 21.1624 4.22506 21.1269 4.18241C21.1056 4.15754 21.0878 4.13622 21.0665 4.11134C21.0203 4.05804 20.9741 4.00474 20.9279 3.95499C20.9066 3.93012 20.8852 3.90524 20.8604 3.88392C20.8213 3.84128 20.7786 3.79509 20.7395 3.75245C20.7111 3.72402 20.6862 3.69559 20.6578 3.66716C20.6223 3.62808 20.5832 3.58899 20.5441 3.55346C20.5228 3.53213 20.4979 3.50726 20.4766 3.48594C20.4268 3.43619 20.3771 3.39 20.3273 3.34025C20.3024 3.31537 20.2775 3.29405 20.2527 3.26918C20.21 3.22654 20.1638 3.18745 20.1212 3.14481C20.0928 3.11638 20.0608 3.0915 20.0323 3.06663C19.9932 3.0311 19.9577 2.99912 19.9186 2.96358C19.8937 2.94226 19.8689 2.92094 19.844 2.89962C19.7907 2.85342 19.7409 2.81079 19.6876 2.76814C19.6592 2.74682 19.6343 2.72195 19.6059 2.70063C19.5561 2.66154 19.5064 2.6189 19.4566 2.57981C19.4282 2.55849 19.3998 2.53361 19.3678 2.51229C19.3287 2.48031 19.2861 2.45189 19.247 2.4199C19.2221 2.39858 19.1937 2.38082 19.1688 2.3595C18.2022 2.89962 16.9477 3.83773 15.8745 5.40835C13.3265 9.12882 15.4374 13.1833 12.8822 16.8931C10.5012 20.3506 7.01503 19.7927 3.8913 20.8232C3.95526 20.8836 4.01923 20.9405 4.0832 20.9973C4.08675 21.0009 4.0903 21.0044 4.09741 21.008C4.16138 21.0613 4.22179 21.1182 4.28576 21.1715C4.29287 21.1786 4.29998 21.1821 4.30708 21.1892C4.3675 21.2425 4.43146 21.2923 4.49188 21.342C4.50254 21.3491 4.50965 21.3562 4.52031 21.3633C4.58072 21.4131 4.64469 21.4593 4.7051 21.509C4.71576 21.5161 4.72642 21.5268 4.73708 21.5339C4.7975 21.5801 4.86146 21.6263 4.92188 21.6725C4.93254 21.6796 4.94675 21.6903 4.95742 21.6974C5.02138 21.7436 5.0818 21.7862 5.14576 21.8324C5.15642 21.8395 5.17064 21.8502 5.1813 21.8573C5.24527 21.8999 5.30924 21.9461 5.3732 21.9887C5.38386 21.9959 5.39808 22.0065 5.40874 22.0136C5.47271 22.0563 5.53667 22.0989 5.60419 22.138C5.61486 22.1451 5.62907 22.1522 5.63973 22.1593C5.70725 22.202 5.77477 22.241 5.8423 22.2837C5.85296 22.2908 5.86006 22.2943 5.87072 22.3015C5.9418 22.3441 6.00932 22.3832 6.08039 22.4258C6.0875 22.4294 6.09105 22.4329 6.09816 22.4365C6.56015 22.6994 7.04346 22.9304 7.54098 23.1294C7.55164 23.133 7.56585 23.1401 7.57652 23.1436C7.64048 23.1685 7.70445 23.1934 7.76842 23.2182C7.79329 23.2289 7.81817 23.236 7.84304 23.2467C7.8999 23.268 7.96032 23.2893 8.01718 23.3106C8.04916 23.3213 8.08114 23.332 8.11313 23.3426C8.16999 23.3604 8.22329 23.3781 8.28015 23.3995C8.31569 23.4101 8.35123 23.4243 8.38677 23.435C8.44007 23.4528 8.49338 23.467 8.54668 23.4848C8.58577 23.4954 8.62486 23.5096 8.66396 23.5203C8.71726 23.5345 8.76701 23.5487 8.82032 23.5629C8.86297 23.5736 8.90206 23.5842 8.9447 23.5949C8.99445 23.6091 9.04776 23.6198 9.09751 23.634C9.14016 23.6447 9.1828 23.6553 9.229 23.666C9.27875 23.6766 9.3285 23.6908 9.37826 23.7015C9.42445 23.7122 9.4671 23.7228 9.5133 23.7299C9.56305 23.7406 9.6128 23.7513 9.659 23.7619C9.7052 23.7726 9.7514 23.7797 9.80115 23.7903C9.8509 23.801 9.8971 23.8081 9.94685 23.8152C9.99661 23.8223 10.0428 23.833 10.0926 23.8401C10.1388 23.8472 10.1885 23.8543 10.2347 23.8614C10.2845 23.8685 10.3342 23.8756 10.384 23.8827C10.4302 23.8898 10.4764 23.897 10.5226 23.9005C10.5759 23.9076 10.6256 23.9112 10.6789 23.9183C10.7251 23.9218 10.7713 23.9289 10.814 23.9325C10.8673 23.9396 10.9241 23.9431 10.9774 23.9467C11.0201 23.9503 11.0663 23.9538 11.1089 23.9574C11.1658 23.9609 11.2262 23.9645 11.2831 23.968C11.3257 23.9716 11.3648 23.9751 11.4074 23.9751C11.4714 23.9787 11.5389 23.9787 11.6029 23.9822C11.6384 23.9822 11.6704 23.9858 11.706 23.9858C11.8055 23.9893 11.9014 23.9893 12.0009 23.9893C12.0045 23.9893 12.0045 23.9893 12.008 23.9893C12.104 23.9893 12.1964 23.9893 12.2923 23.9858C12.3065 23.9858 12.3172 23.9858 12.3314 23.9858C12.4202 23.9822 12.5091 23.9787 12.6015 23.9751C12.6193 23.9751 12.6335 23.9751 12.6512 23.9716C12.7401 23.968 12.8289 23.9609 12.9142 23.9538C12.9284 23.9538 12.9462 23.9503 12.9604 23.9503C13.0493 23.9431 13.1417 23.936 13.2305 23.9254C13.2376 23.9254 13.2483 23.9218 13.2554 23.9218C13.3442 23.9112 13.4331 23.9041 13.5219 23.8898C13.529 23.8898 13.5361 23.8863 13.5468 23.8863C13.6356 23.8756 13.7245 23.8614 13.8133 23.8508C13.8275 23.8472 13.8417 23.8472 13.856 23.8436C13.9412 23.8294 14.0265 23.8152 14.1118 23.801C14.1296 23.7975 14.1438 23.7939 14.1616 23.7939C14.2469 23.7797 14.3322 23.7619 14.4174 23.7442C14.4317 23.7406 14.4423 23.737 14.4565 23.737C14.5454 23.7193 14.6342 23.7015 14.7195 23.6802C14.7231 23.6802 14.7266 23.6802 14.7302 23.6766C14.8155 23.6553 14.9008 23.634 14.986 23.6127C14.9967 23.6091 15.0109 23.6056 15.0216 23.602C15.1033 23.5807 15.1851 23.5594 15.2703 23.5345C15.2881 23.5309 15.3023 23.5238 15.3201 23.5203C15.4018 23.4954 15.48 23.4741 15.5617 23.4492C15.576 23.4457 15.5937 23.4386 15.6079 23.435C15.6897 23.4101 15.7714 23.3817 15.8532 23.3568C15.8638 23.3533 15.8745 23.3497 15.8851 23.3462C15.9633 23.3177 16.0451 23.2929 16.1232 23.2644C16.1303 23.2609 16.141 23.2573 16.1481 23.2538C16.2298 23.2254 16.308 23.1934 16.3862 23.1614C16.4004 23.1543 16.4182 23.1507 16.4324 23.1436C16.5106 23.1116 16.5852 23.0832 16.6598 23.0512C16.6776 23.0441 16.6918 23.037 16.7096 23.0299C16.7842 22.9979 16.8589 22.9659 16.937 22.9304C16.9513 22.9233 16.9655 22.9162 16.9797 22.9091C17.0579 22.8736 17.1325 22.838 17.2107 22.8025C17.2178 22.7989 17.2249 22.7954 17.232 22.7918C17.3066 22.7563 17.3777 22.7208 17.4488 22.6852C17.463 22.6781 17.4737 22.671 17.4879 22.6639C17.5589 22.6284 17.6336 22.5893 17.7046 22.5502C17.7224 22.5395 17.7366 22.5324 17.7544 22.5218C17.8255 22.4827 17.893 22.4436 17.9641 22.4045C17.9818 22.3938 17.9961 22.3867 18.0138 22.3761C18.0849 22.337 18.1524 22.2943 18.2235 22.2517C18.2377 22.2446 18.2484 22.2375 18.2626 22.2268C18.3301 22.1877 18.3941 22.1451 18.458 22.1025C18.4687 22.0953 18.4794 22.0918 18.4865 22.0847C18.554 22.042 18.6251 21.9959 18.6926 21.9497C18.7068 21.939 18.7246 21.9283 18.7388 21.9177C18.8027 21.875 18.8703 21.8288 18.9342 21.7826C18.952 21.772 18.9698 21.7578 18.984 21.7471C19.048 21.7009 19.1119 21.6547 19.1759 21.6085C19.1901 21.5979 19.2079 21.5837 19.2221 21.573C19.2861 21.5232 19.35 21.477 19.414 21.4273C19.4247 21.4202 19.4353 21.4095 19.446 21.4024C19.5064 21.3562 19.5632 21.31 19.6201 21.2603C19.6343 21.2496 19.6485 21.239 19.6592 21.2283C19.7196 21.1786 19.78 21.1288 19.8404 21.0755C19.8582 21.0613 19.8724 21.0471 19.8902 21.0329C19.947 20.9831 20.0075 20.9298 20.0643 20.8801C20.0821 20.8659 20.0963 20.8516 20.1141 20.8374C20.1709 20.7841 20.2278 20.7308 20.2847 20.6775C20.2989 20.6633 20.3095 20.6527 20.3237 20.6384C20.3771 20.5887 20.4304 20.5354 20.4801 20.4856C20.4908 20.475 20.5014 20.4643 20.5156 20.4501C20.569 20.3968 20.6223 20.3399 20.6756 20.2831C20.6898 20.2689 20.704 20.2547 20.7182 20.2369C20.7715 20.18 20.8248 20.1232 20.8746 20.0699C20.8888 20.0521 20.9066 20.0379 20.9208 20.0201C20.9705 19.9633 21.0238 19.9064 21.0736 19.8496C21.0878 19.8318 21.102 19.8176 21.1162 19.7998C21.166 19.7394 21.2193 19.679 21.269 19.6186L21.994 18.645C22.0615 18.5419 22.129 18.4389 22.1966 18.3323C22.2108 18.3074 22.2285 18.2825 22.2428 18.2612C22.2712 18.215 22.2961 18.1723 22.3245 18.1261C22.3387 18.1013 22.3565 18.0728 22.3707 18.048C22.4595 17.8987 22.5448 17.7459 22.6266 17.5896C22.6408 17.5611 22.6585 17.5327 22.6728 17.5007C22.6941 17.4581 22.719 17.4119 22.7403 17.3657C22.7545 17.3337 22.7723 17.3018 22.7865 17.2733C22.8185 17.2094 22.8504 17.1454 22.8789 17.0814C22.9002 17.0352 22.9215 16.989 22.9428 16.9428C22.9606 16.9002 22.9819 16.8576 22.9997 16.8149C23.0139 16.7794 23.0317 16.7439 23.0459 16.7083C23.0637 16.6657 23.0814 16.623 23.0992 16.5804C23.117 16.5413 23.1312 16.5022 23.1454 16.4631C23.1632 16.424 23.1774 16.385 23.1952 16.3423C23.2236 16.2713 23.2485 16.2002 23.2769 16.1291C23.2911 16.09 23.3053 16.0509 23.3195 16.0154C23.3338 15.9728 23.3515 15.9266 23.3657 15.8839C23.38 15.8448 23.3942 15.8058 23.4048 15.7667C23.4226 15.7169 23.4368 15.6707 23.451 15.621C23.4617 15.589 23.4724 15.5535 23.483 15.5215C23.5079 15.4433 23.5292 15.3687 23.5505 15.2905C23.5612 15.255 23.5683 15.223 23.579 15.1874C23.5932 15.1341 23.6074 15.0844 23.6216 15.0311C23.6323 14.9956 23.6394 14.96 23.65 14.9245C23.6643 14.8641 23.6785 14.8037 23.6927 14.7433C23.6998 14.7184 23.7069 14.6935 23.7104 14.6651C23.7282 14.5834 23.746 14.5016 23.7638 14.4164C23.7709 14.3844 23.7744 14.3559 23.7815 14.324C23.7922 14.2636 23.8028 14.2067 23.8171 14.1463C23.8242 14.1143 23.8277 14.0823 23.8348 14.0503C23.849 13.9793 23.8597 13.9082 23.8704 13.8336C23.8739 13.8158 23.8775 13.8016 23.8775 13.7838C23.8917 13.6986 23.9024 13.6097 23.913 13.5209C23.9166 13.4924 23.9201 13.464 23.9237 13.4356C23.9308 13.3716 23.9379 13.3077 23.945 13.2402C23.9486 13.2117 23.9521 13.1833 23.9557 13.1549C23.9628 13.0731 23.9699 12.9914 23.977 12.9061C23.977 12.899 23.977 12.8884 23.9805 12.8813C23.9876 12.7924 23.9912 12.7 23.9983 12.6076C23.9983 12.5792 24.0019 12.5543 24.0019 12.5259C24.0054 12.4584 24.009 12.3909 24.009 12.3198C24.009 12.2914 24.009 12.2665 24.0125 12.2381C24.0019 12.1848 24.0019 12.0924 24.0019 12Z" fill="white"/>
<defs>
<linearGradient id="paint0_linear" x1="-0.00155653" y1="12.0012" x2="24.0003" y2="12.0012" gradientUnits="userSpaceOnUse">
<stop stop-color="#70D5EA"/>
<stop offset="0.5" stop-color="#D483FB"/>
<stop offset="1" stop-color="#FF3CAC"/>
</linearGradient>
</defs>
</svg>
